PathFileType	4	(X/Y/Z)	C:/Users/opensim2020/Desktop/walking_exp_matlab/subject06_walking14_straight_01.trc																																																																																																																																					
DataRate	CameraRate	NumFrames	NumMarkers	Units	OrigDataRate	OrigDataStartFrame	OrigNumFrames																																																																																																																																	
100	100	6	45	mm	100	987	203																																																																																																																																	
Frame#	Time	LFHD			RFHD			LBHD			RBHD			C7			T10			CLAV			STRN			RBAK			LSHO			LUPA			LELB			LFRM			LWRA			LWRB			LFIN			RSHO			RUPA			RELB			RFRM			RWRA			RWRB			RFIN			LASI			RASI			LPSI			RPSI			LTHI			LKNE			LTIB			LANK			LHEE			LTOE			RTHI			RKNE			RTIB			RANK			RHEE			RTOE			*39			*40			*41			*42			*43			*44		
		X1	Y1	Z1	X2	Y2	Z2	X3	Y3	Z3	X4	Y4	Z4	X5	Y5	Z5	X6	Y6	Z6	X7	Y7	Z7	X8	Y8	Z8	X9	Y9	Z9	X10	Y10	Z10	X11	Y11	Z11	X12	Y12	Z12	X13	Y13	Z13	X14	Y14	Z14	X15	Y15	Z15	X16	Y16	Z16	X17	Y17	Z17	X18	Y18	Z18	X19	Y19	Z19	X20	Y20	Z20	X21	Y21	Z21	X22	Y22	Z22	X23	Y23	Z23	X24	Y24	Z24	X25	Y25	Z25	X26	Y26	Z26	X27	Y27	Z27	X28	Y28	Z28	X29	Y29	Z29	X30	Y30	Z30	X31	Y31	Z31	X32	Y32	Z32	X33	Y33	Z33	X34	Y34	Z34	X35	Y35	Z35	X36	Y36	Z36	X37	Y37	Z37	X38	Y38	Z38	X39	Y39	Z39	X40	Y40	Z40	X41	Y41	Z41	X42	Y42	Z42	X43	Y43	Z43	X44	Y44	Z44	X45	Y45	Z45
																																																																																																																																								
178	1.77	504.52551	1655.63147	1360.28015	511.96243	1646.46216	1491.23486	371.84918	1600.29272	1368.4624	380.55444	1596.36267	1497.75903	374.44641	1442.52515	1423.05029	345.49484	1113.26563	1431.21399	485.66452	1366.46948	1424.83618	528.25079	1192.4873	1416.98328	303.67017	1269.63928	1494.93774	428.6062	1397.22705	1263.26733	450.31287	1198.47717	1186.92212	468.76114	1088.30139	1170.01807	559.3299	969.71368	1148.45959	671.51385	909.3009	1192.24036	624.91376	869.89996	1156.33899	704.99854	830.33374	1152.48169	435.10712	1397.71899	1585.75537	370.99194	1204.32861	1668.0719	362.96594	1082.07678	1678.11499	354.42282	962.20618	1696.6062	384.07483	811.7326	1668.44568	331.56009	826.33643	1707.53027	349.11688	743.1286	1710.72656	511.84189	949.20013	1321.85181	533.91425	971.26843	1538.47485	358.96277	975.73627	1360.50781	379.92365	989.44647	1526.82727	413.8468	631.45355	1279.03625	395.6008	468.04086	1298.57788	205.01546	297.534	1316.51624	90.19888	169.81271	1360.54688	57.13353	188.85417	1408.93713	159.39981	39.84322	1371.35901	551.71606	644.67371	1597.74902	579.45587	524.74817	1564.31702	577.12421	256.60815	1567.0968	579.86597	71.49818	1519.38928	537.67786	47.65018	1479.08191	731.69476	41.61797	1500.56433	407.19812	1694.47729	1424.65369	NaN	NaN	NaN	NaN	NaN	NaN	NaN	NaN	NaN	NaN	NaN	NaN	NaN	NaN	NaN
179	1.78	515.25891	1657.40161	1360.88708	523.68298	1648.63977	1492.8728	382.73514	1601.81494	1369.17603	391.60025	1597.78455	1498.43811	385.76752	1444.18225	1423.89612	356.72519	1115.24731	1432.45862	497.14441	1368.26123	1425.42737	539.78735	1194.19287	1417.62708	315.57028	1271.7644	1496.1825	439.77219	1398.97058	1264.24072	460.80832	1200.24866	1188.25562	477.22995	1089.54297	1171.93054	564.98737	968.75146	1149.72534	676.19073	905.40485	1192.25818	628.23383	867.29761	1156.97217	707.22241	825.34039	1152.77332	447.07272	1399.81189	1586.35205	384.30377	1206.16797	1668.95105	376.95392	1083.82166	1679.1449	369.67749	963.90222	1697.54138	400.96643	813.72473	1669.1781	348.35934	827.84161	1708.41382	366.78943	744.81927	1711.63953	522.55615	950.86786	1323.00513	544.94684	972.73962	1539.50952	369.80115	977.2132	1361.88708	391.26633	991.27509	1527.8822	429.03232	631.91357	1278.90417	414.58344	468.29199	1297.49561	222.39838	302.28726	1315.93738	104.76482	176.96533	1358.88318	73.12067	198.27509	1407.44238	164.70772	42.57551	1371.19141	558.26056	644.5257	1598.97913	585.21582	524.59796	1565.47205	579.58246	256.34579	1567.12976	580.49225	71.48665	1519.04651	538.0011	47.67637	1479.06702	732.20551	41.21161	1500.40771	417.93387	1696.02087	1425.38989	NaN	NaN	NaN	NaN	NaN	NaN	NaN	NaN	NaN	NaN	NaN	NaN	NaN	NaN	NaN
180	1.79	525.79553	1659.01208	1361.40283	534.57111	1650.29736	1493.33801	393.64935	1603.10938	1369.85522	402.59033	1599.08423	1499.05115	397.07895	1445.64746	1424.74207	367.68341	1117.06372	1433.80322	508.49716	1369.91687	1426.02649	551.16772	1195.72327	1418.33423	327.2662	1273.74646	1497.6925	450.80588	1400.44617	1265.19897	471.03809	1201.7052	1189.39526	485.44083	1090.46375	1173.69458	570.43628	967.54742	1150.94214	680.35889	901.2475	1192.28003	631.30463	864.52246	1157.92847	709.06775	820.09631	1153.20837	459.09787	1401.75293	1586.97168	397.58957	1207.8938	1670.06909	390.87695	1085.46631	1680.2655	385.2001	965.39429	1698.38928	418.20618	815.70117	1669.88269	365.43533	829.14783	1709.25806	385.00278	746.21722	1712.40662	533.03003	952.50348	1323.79883	555.84424	973.87988	1540.35486	380.3511	978.52936	1363.14355	402.34689	992.7782	1528.87061	444.20309	632.27161	1278.7981	433.89087	468.5278	1296.69336	240.78899	306.25687	1314.92749	120.136	184.26968	1357.19446	89.7461	207.69716	1405.52832	171.89816	46.58718	1371.1062	563.20313	643.76007	1599.69299	590.91333	524.22791	1566.67346	581.81329	256.22073	1567.16663	580.87775	71.49554	1518.79822	537.8576	48.3703	1478.7644	732.62109	40.83908	1500.39209	428.52539	1697.3988	1425.98218	NaN	NaN	NaN	NaN	NaN	NaN	NaN	NaN	NaN	NaN	NaN	NaN	NaN	NaN	NaN
181	1.8	536.53589	1660.65491	1361.74854	545.54816	1651.88464	1493.52673	404.47531	1604.26721	1370.44324	413.62238	1600.38745	1499.61987	408.27606	1447.12146	1425.65454	378.74191	1118.63782	1435.11389	519.76398	1371.38293	1426.50549	562.32727	1197.14038	1418.95178	338.61795	1275.45081	1499.41785	461.73721	1401.70044	1265.98511	480.77948	1202.77429	1190.51929	493.40536	1091.01648	1175.42126	575.83093	965.99402	1151.98425	684.46869	897.00739	1192.43213	633.96899	861.62164	1158.34497	710.53723	814.7348	1153.49182	471.19443	1403.53064	1587.62231	410.94186	1209.41394	1671.30103	404.87885	1086.93945	1681.52405	400.72336	966.76422	1699.50195	435.27625	817.37213	1670.48804	382.90881	830.20453	1710.0509	403.67041	747.75006	1713.14294	543.38342	953.94067	1324.25598	566.93176	974.75342	1541.01758	390.55902	979.71899	1364.31616	412.89194	994.26257	1530.07507	459.56931	632.67487	1278.83936	453.42587	468.83704	1296.25049	260.06131	309.22604	1313.95288	136.35143	191.60251	1355.74036	107.03677	216.79559	1403.65857	181.2543	51.56431	1370.52075	568.901	643.76941	1600.74597	596.46954	523.703	1567.70313	583.3764	256.08392	1567.40149	580.90082	71.53777	1518.64746	537.99036	48.33878	1478.77673	732.89911	40.46462	1500.61108	439.0607	1698.7146	1426.39893	NaN	NaN	NaN	NaN	NaN	NaN	NaN	NaN	NaN	NaN	NaN	NaN	NaN	NaN	NaN
182	1.81	547.1073	1662.10779	1361.99329	556.47424	1653.57996	1493.7655	415.22534	1605.36572	1371.05823	424.59995	1601.68689	1500.18494	419.53555	1448.65417	1426.54028	389.50781	1120.05566	1436.50513	530.88171	1372.82458	1427.05762	573.29346	1198.44385	1419.56189	350.14667	1276.98987	1501.26758	472.38345	1402.71997	1266.62781	490.05316	1203.4613	1191.58105	501.48752	1091.4801	1176.89954	580.49261	964.30298	1153.1709	688.08521	892.47839	1192.59473	636.2793	858.56421	1159.04346	711.37549	809.20789	1153.92529	483.34671	1405.14319	1588.35461	424.36545	1210.80505	1672.6217	418.99655	1088.26306	1682.93787	416.50012	968.03186	1700.63611	453.13663	819.08545	1671.04895	400.69131	831.12549	1710.93225	422.9061	749.06982	1713.80786	553.62823	955.29346	1324.52417	577.59125	975.36932	1541.44141	400.89505	980.71033	1365.35339	423.78369	995.32416	1530.91357	475.02582	633.21838	1279.01233	473.11581	469.45413	1296.00354	279.67337	311.54663	1312.89075	152.77234	198.63936	1354.65527	124.21848	224.38181	1402.75732	193.84821	57.10467	1367.89673	575.34113	643.91388	1601.47693	601.85278	523.30084	1568.52014	584.40063	255.97067	1568.04871	580.7981	71.6065	1518.61658	537.85315	48.23367	1478.68811	733.13617	40.152	1500.85791	449.60562	1699.98059	1426.75879	NaN	NaN	NaN	NaN	NaN	NaN	NaN	NaN	NaN	NaN	NaN	NaN	NaN	NaN	NaN
183	1.82	557.7113	1663.47363	1362.1554	567.32129	1655.1814	1493.86926	425.87329	1606.49316	1371.62476	435.54987	1603.02368	1500.73035	430.58755	1450.14648	1427.49792	400.50266	1121.33838	1437.77136	541.85883	1374.12085	1427.53125	584.0954	1199.72034	1420.14783	360.52023	1278.75342	1503.32434	482.80844	1403.65417	1267.18298	498.90784	1203.7771	1192.74146	509.57452	1091.7771	1178.41504	585.00366	962.62183	1154.52563	691.34515	887.79181	1192.77612	638.32465	855.37433	1159.72461	711.77234	803.66412	1154.34692	495.47702	1406.59058	1589.06885	437.76093	1211.92627	1674.15674	433.22589	1089.41541	1684.35974	432.38394	969.13739	1702.03894	471.33032	820.93976	1671.70203	418.80997	831.91156	1711.7959	442.92789	750.43671	1714.73035	564.22571	956.70294	1324.81628	588.19818	975.93561	1541.78015	411.17612	981.79333	1366.27148	434.13046	996.74628	1532.07019	490.66791	633.98822	1279.34302	492.60342	470.37729	1296.07422	299.10501	313.69943	1311.77222	169.17145	204.83121	1354.58911	140.25304	229.84326	1403.19275	210.23465	62.75348	1364.27039	582.76337	644.41357	1601.92798	607.27539	523.08765	1569.46838	585.69507	255.95422	1568.69067	580.90411	71.63711	1518.64697	537.73907	48.4385	1478.50549	733.34662	39.85962	1500.82483	460.2265	1701.23706	1427.02637	NaN	NaN	NaN	NaN	NaN	NaN	NaN	NaN	NaN	NaN	NaN	NaN	NaN	NaN	NaN
